<?xml version="1.0" encoding="UTF-8" standalone="no"?>
<!DOCTYPE svg PUBLIC "-//W3C//DTD SVG 1.1//EN"
 "http://www.w3.org/Graphics/SVG/1.1/DTD/svg11.dtd">
<!-- Generated by graphviz version 2.38.0 (20140413.2041)
 -->
<!-- Title: graph_window Pages: 1 -->
<svg width="784pt" height="274pt"
 viewBox="0.00 0.00 784.48 274.40" xmlns="http://www.w3.org/2000/svg" xmlns:xlink="http://www.w3.org/1999/xlink">
<g id="graph0" class="graph" transform="scale(1 1) rotate(0) translate(4 270.4)">
<title>graph_window</title>
<polygon fill="white" stroke="none" points="-4,4 -4,-270.4 780.482,-270.4 780.482,4 -4,4"/>
<!-- &#39;Cecilia Cavendish&#45;Bentinck&#39; -->
<g id="node1" class="node"><title>&#39;Cecilia Cavendish&#45;Bentinck&#39;</title>
<defs>
<radialGradient id="r_0" cx="50%" cy="50%" r="75%" fx="50%" fy="50%">
<stop offset="0" style="stop-color:white;stop-opacity:1.;"/>
<stop offset="1" style="stop-color:red;stop-opacity:1.;"/>
</radialGradient>
</defs>
<ellipse fill="url(#r_0)" stroke="black" cx="109.84" cy="-248.4" rx="109.681" ry="18"/>
<text text-anchor="middle" x="109.84" y="-244.7" font-family="Times,serif" font-size="14.00">Cecilia Cavendish&#45;Bentinck</text>
</g>
<!-- [&#39;Cecilia Cavendish&#45;Bentinck&#39;,&#39;Claude Bowes&#45;Lyon&#39;] -->
<g id="node10" class="node"><title>[&#39;Cecilia Cavendish&#45;Bentinck&#39;,&#39;Claude Bowes&#45;Lyon&#39;]</title>
<ellipse fill="white" stroke="black" cx="289.84" cy="-190.8" rx="3.6" ry="3.6"/>
</g>
<!-- &#39;Cecilia Cavendish&#45;Bentinck&#39;&#45;&gt;[&#39;Cecilia Cavendish&#45;Bentinck&#39;,&#39;Claude Bowes&#45;Lyon&#39;] -->
<g id="edge4" class="edge"><title>&#39;Cecilia Cavendish&#45;Bentinck&#39;&#45;&gt;[&#39;Cecilia Cavendish&#45;Bentinck&#39;,&#39;Claude Bowes&#45;Lyon&#39;]</title>
<path fill="none" stroke="black" d="M159.026,-232.207C198.919,-219.885 252.385,-203.369 276.752,-195.843"/>
<polygon fill="black" stroke="black" points="286.405,-192.861 278.179,-200.112 281.628,-194.337 276.851,-195.812 276.851,-195.812 276.851,-195.812 281.628,-194.337 275.523,-191.513 286.405,-192.861 286.405,-192.861"/>
</g>
<!-- &#39;Claude Bowes&#45;Lyon&#39; -->
<g id="node2" class="node"><title>&#39;Claude Bowes&#45;Lyon&#39;</title>
<defs>
<radialGradient id="r_1" cx="50%" cy="50%" r="75%" fx="50%" fy="50%">
<stop offset="0" style="stop-color:white;stop-opacity:1.;"/>
<stop offset="1" style="stop-color:green;stop-opacity:1.;"/>
</radialGradient>
</defs>
<ellipse fill="url(#r_1)" stroke="black" cx="320.84" cy="-248.4" rx="83.3857" ry="18"/>
<text text-anchor="middle" x="320.84" y="-244.7" font-family="Times,serif" font-size="14.00">Claude Bowes&#45;Lyon</text>
</g>
<!-- &#39;Claude Bowes&#45;Lyon&#39;&#45;&gt;[&#39;Cecilia Cavendish&#45;Bentinck&#39;,&#39;Claude Bowes&#45;Lyon&#39;] -->
<g id="edge5" class="edge"><title>&#39;Claude Bowes&#45;Lyon&#39;&#45;&gt;[&#39;Cecilia Cavendish&#45;Bentinck&#39;,&#39;Claude Bowes&#45;Lyon&#39;]</title>
<path fill="none" stroke="black" d="M311.371,-230.416C306.433,-221.56 300.528,-210.969 296.152,-203.12"/>
<polygon fill="black" stroke="black" points="291.245,-194.32 300.045,-200.863 293.68,-198.687 296.115,-203.054 296.115,-203.054 296.115,-203.054 293.68,-198.687 292.185,-205.245 291.245,-194.32 291.245,-194.32"/>
</g>
<!-- &#39;George V&#39; -->
<g id="node3" class="node"><title>&#39;George V&#39;</title>
<defs>
<radialGradient id="r_2" cx="50%" cy="50%" r="75%" fx="50%" fy="50%">
<stop offset="0" style="stop-color:white;stop-opacity:1.;"/>
<stop offset="1" style="stop-color:green;stop-opacity:1.;"/>
</radialGradient>
</defs>
<ellipse fill="url(#r_2)" stroke="black" cx="529.84" cy="-248.4" rx="45.4919" ry="18"/>
<text text-anchor="middle" x="529.84" y="-244.7" font-family="Times,serif" font-size="14.00">George V</text>
</g>
<!-- [&#39;George V&#39;,&#39;Princess Mary of Teck&#39;] -->
<g id="node9" class="node"><title>[&#39;George V&#39;,&#39;Princess Mary of Teck&#39;]</title>
<ellipse fill="white" stroke="black" cx="606.84" cy="-190.8" rx="3.6" ry="3.6"/>
</g>
<!-- &#39;George V&#39;&#45;&gt;[&#39;George V&#39;,&#39;Princess Mary of Teck&#39;] -->
<g id="edge1" class="edge"><title>&#39;George V&#39;&#45;&gt;[&#39;George V&#39;,&#39;Princess Mary of Teck&#39;]</title>
<path fill="none" stroke="black" d="M550.881,-232.207C565.483,-221.663 584.337,-208.049 596.005,-199.624"/>
<polygon fill="black" stroke="black" points="604.122,-193.763 598.649,-203.265 600.069,-196.69 596.015,-199.617 596.015,-199.617 596.015,-199.617 600.069,-196.69 593.381,-195.968 604.122,-193.763 604.122,-193.763"/>
</g>
<!-- &#39;Princess Mary of Teck&#39; -->
<g id="node4" class="node"><title>&#39;Princess Mary of Teck&#39;</title>
<defs>
<radialGradient id="r_3" cx="50%" cy="50%" r="75%" fx="50%" fy="50%">
<stop offset="0" style="stop-color:white;stop-opacity:1.;"/>
<stop offset="1" style="stop-color:red;stop-opacity:1.;"/>
</radialGradient>
</defs>
<ellipse fill="url(#r_3)" stroke="black" cx="684.84" cy="-248.4" rx="91.784" ry="18"/>
<text text-anchor="middle" x="684.84" y="-244.7" font-family="Times,serif" font-size="14.00">Princess Mary of Teck</text>
</g>
<!-- &#39;Princess Mary of Teck&#39;&#45;&gt;[&#39;George V&#39;,&#39;Princess Mary of Teck&#39;] -->
<g id="edge2" class="edge"><title>&#39;Princess Mary of Teck&#39;&#45;&gt;[&#39;George V&#39;,&#39;Princess Mary of Teck&#39;]</title>
<path fill="none" stroke="black" d="M661.438,-230.718C647.019,-220.44 629.195,-207.735 617.919,-199.697"/>
<polygon fill="black" stroke="black" points="609.438,-193.652 620.193,-195.792 613.51,-196.554 617.581,-199.456 617.581,-199.456 617.581,-199.456 613.51,-196.554 614.969,-203.121 609.438,-193.652 609.438,-193.652"/>
</g>
<!-- &#39;George VI&#39; -->
<g id="node5" class="node"><title>&#39;George VI&#39;</title>
<defs>
<radialGradient id="r_4" cx="50%" cy="50%" r="75%" fx="50%" fy="50%">
<stop offset="0" style="stop-color:white;stop-opacity:1.;"/>
<stop offset="1" style="stop-color:green;stop-opacity:1.;"/>
</radialGradient>
</defs>
<ellipse fill="url(#r_4)" stroke="black" cx="606.84" cy="-133.2" rx="48.1917" ry="18"/>
<text text-anchor="middle" x="606.84" y="-129.5" font-family="Times,serif" font-size="14.00">George VI</text>
</g>
<!-- [&#39;George VI&#39;,&#39;Lady Elizabeth Bowes&#45;Lyon&#39;] -->
<g id="node11" class="node"><title>[&#39;George VI&#39;,&#39;Lady Elizabeth Bowes&#45;Lyon&#39;]</title>
<ellipse fill="white" stroke="black" cx="432.84" cy="-75.6" rx="3.6" ry="3.6"/>
</g>
<!-- &#39;George VI&#39;&#45;&gt;[&#39;George VI&#39;,&#39;Lady Elizabeth Bowes&#45;Lyon&#39;] -->
<g id="edge8" class="edge"><title>&#39;George VI&#39;&#45;&gt;[&#39;George VI&#39;,&#39;Lady Elizabeth Bowes&#45;Lyon&#39;]</title>
<path fill="none" stroke="black" d="M571.209,-120.814C532.413,-108.417 472.384,-89.2357 446.019,-80.8111"/>
<polygon fill="black" stroke="black" points="436.244,-77.6876 447.139,-76.445 441.007,-79.2096 445.77,-80.7315 445.77,-80.7315 445.77,-80.7315 441.007,-79.2096 444.4,-85.018 436.244,-77.6876 436.244,-77.6876"/>
</g>
<!-- &#39;Lady Elizabeth Bowes&#45;Lyon&#39; -->
<g id="node6" class="node"><title>&#39;Lady Elizabeth Bowes&#45;Lyon&#39;</title>
<defs>
<radialGradient id="r_5" cx="50%" cy="50%" r="75%" fx="50%" fy="50%">
<stop offset="0" style="stop-color:white;stop-opacity:1.;"/>
<stop offset="1" style="stop-color:red;stop-opacity:1.;"/>
</radialGradient>
</defs>
<ellipse fill="url(#r_5)" stroke="black" cx="258.84" cy="-133.2" rx="112.38" ry="18"/>
<text text-anchor="middle" x="258.84" y="-129.5" font-family="Times,serif" font-size="14.00">Lady Elizabeth Bowes&#45;Lyon</text>
</g>
<!-- &#39;Lady Elizabeth Bowes&#45;Lyon&#39;&#45;&gt;[&#39;George VI&#39;,&#39;Lady Elizabeth Bowes&#45;Lyon&#39;] -->
<g id="edge9" class="edge"><title>&#39;Lady Elizabeth Bowes&#45;Lyon&#39;&#45;&gt;[&#39;George VI&#39;,&#39;Lady Elizabeth Bowes&#45;Lyon&#39;]</title>
<path fill="none" stroke="black" d="M306.847,-116.86C345.223,-104.597 396.361,-88.2566 419.937,-80.7233"/>
<polygon fill="black" stroke="black" points="429.539,-77.6549 421.383,-84.9852 424.776,-79.1768 420.013,-80.6988 420.013,-80.6988 420.013,-80.6988 424.776,-79.1768 418.644,-76.4123 429.539,-77.6549 429.539,-77.6549"/>
</g>
<!-- &#39;Rose Bowes&#45;Lyon&#39; -->
<g id="node7" class="node"><title>&#39;Rose Bowes&#45;Lyon&#39;</title>
<defs>
<radialGradient id="r_6" cx="50%" cy="50%" r="75%" fx="50%" fy="50%">
<stop offset="0" style="stop-color:white;stop-opacity:1.;"/>
<stop offset="1" style="stop-color:red;stop-opacity:1.;"/>
</radialGradient>
</defs>
<ellipse fill="url(#r_6)" stroke="black" cx="464.84" cy="-133.2" rx="76.0865" ry="18"/>
<text text-anchor="middle" x="464.84" y="-129.5" font-family="Times,serif" font-size="14.00">Rose Bowes&#45;Lyon</text>
</g>
<!-- &#39;Elizabeth II&#39; -->
<g id="node8" class="node"><title>&#39;Elizabeth II&#39;</title>
<defs>
<radialGradient id="r_7" cx="50%" cy="50%" r="75%" fx="50%" fy="50%">
<stop offset="0" style="stop-color:white;stop-opacity:1.;"/>
<stop offset="1" style="stop-color:red;stop-opacity:1.;"/>
</radialGradient>
</defs>
<ellipse fill="url(#r_7)" stroke="black" cx="432.84" cy="-18" rx="51.9908" ry="18"/>
<text text-anchor="middle" x="432.84" y="-14.3" font-family="Times,serif" font-size="14.00">Elizabeth II</text>
</g>
<!-- [&#39;George V&#39;,&#39;Princess Mary of Teck&#39;]&#45;&gt;&#39;George VI&#39; -->
<g id="edge3" class="edge"><title>[&#39;George V&#39;,&#39;Princess Mary of Teck&#39;]&#45;&gt;&#39;George VI&#39;</title>
<path fill="none" stroke="black" d="M606.84,-187.118C606.84,-182.335 606.84,-171.857 606.84,-161.476"/>
<polygon fill="black" stroke="black" points="606.84,-151.343 611.34,-161.343 606.84,-156.343 606.84,-161.343 606.84,-161.343 606.84,-161.343 606.84,-156.343 602.34,-161.343 606.84,-151.343 606.84,-151.343"/>
</g>
<!-- [&#39;Cecilia Cavendish&#45;Bentinck&#39;,&#39;Claude Bowes&#45;Lyon&#39;]&#45;&gt;&#39;Lady Elizabeth Bowes&#45;Lyon&#39; -->
<g id="edge6" class="edge"><title>[&#39;Cecilia Cavendish&#45;Bentinck&#39;,&#39;Claude Bowes&#45;Lyon&#39;]&#45;&gt;&#39;Lady Elizabeth Bowes&#45;Lyon&#39;</title>
<path fill="none" stroke="black" d="M288.508,-187.411C285.828,-182.604 279.517,-171.285 273.401,-160.316"/>
<polygon fill="black" stroke="black" points="268.394,-151.336 277.194,-157.878 270.829,-155.703 273.264,-160.07 273.264,-160.07 273.264,-160.07 270.829,-155.703 269.334,-162.261 268.394,-151.336 268.394,-151.336"/>
</g>
<!-- [&#39;Cecilia Cavendish&#45;Bentinck&#39;,&#39;Claude Bowes&#45;Lyon&#39;]&#45;&gt;&#39;Rose Bowes&#45;Lyon&#39; -->
<g id="edge7" class="edge"><title>[&#39;Cecilia Cavendish&#45;Bentinck&#39;,&#39;Claude Bowes&#45;Lyon&#39;]&#45;&gt;&#39;Rose Bowes&#45;Lyon&#39;</title>
<path fill="none" stroke="black" d="M292.878,-188.835C306.874,-184.388 366.391,-165.479 411.518,-151.141"/>
<polygon fill="black" stroke="black" points="421.195,-148.067 413.027,-155.383 416.43,-149.581 411.665,-151.095 411.665,-151.095 411.665,-151.095 416.43,-149.581 410.302,-146.806 421.195,-148.067 421.195,-148.067"/>
</g>
<!-- [&#39;George VI&#39;,&#39;Lady Elizabeth Bowes&#45;Lyon&#39;]&#45;&gt;&#39;Elizabeth II&#39; -->
<g id="edge10" class="edge"><title>[&#39;George VI&#39;,&#39;Lady Elizabeth Bowes&#45;Lyon&#39;]&#45;&gt;&#39;Elizabeth II&#39;</title>
<path fill="none" stroke="black" d="M432.84,-71.9183C432.84,-67.1352 432.84,-56.6571 432.84,-46.2764"/>
<polygon fill="black" stroke="black" points="432.84,-36.1426 437.34,-46.1426 432.84,-41.1426 432.84,-46.1426 432.84,-46.1426 432.84,-46.1426 432.84,-41.1426 428.34,-46.1427 432.84,-36.1426 432.84,-36.1426"/>
</g>
</g>
</svg>
